<svg xmlns="http://www.w3.org/2000/svg" width="131.913" height="141.243" viewBox="0 0 131.913 141.243">
  <g id="email_verified" transform="translate(-77.67 -61.462)">
    <path id="Path_2138" data-name="Path 2138" d="M270.709,189.69a6.892,6.892,0,0,1,1.31,1.251l-13.972,9.231-.192-18.973Z" transform="translate(-77.887 -51.757)" fill="#e0f8fa" opacity="0.85"/>
    <path id="Path_2139" data-name="Path 2139" d="M148.627,107.985h54.441a5.2,5.2,0,0,1,5.2,5.2v55.388l-23.5,15.526-6.1-5.908a4.028,4.028,0,0,0-5.636,0l-6.1,5.908-23.507-15.53V113.181A5.2,5.2,0,0,1,148.627,107.985Z" transform="translate(-28.426 -20.11)" fill="#fff" opacity="0.8"/>
    <path id="Path_2140" data-name="Path 2140" d="M119.636,189.667l12.845-8.486-.1,19.03-13.965-9.226A4.07,4.07,0,0,1,119.636,189.667Z" transform="translate(-17.614 -51.749)" fill="#e0f8fa" opacity="0.85"/>
    <path id="Path_2141" data-name="Path 2141" d="M117.853,255.839V200.012a3.418,3.418,0,0,1,.364-1.511l37.566,24.815L119.1,258.875A4.32,4.32,0,0,1,117.853,255.839Z" transform="translate(-17.369 -59.236)" fill="#b2ebf2" opacity="0.85"/>
    <path id="Path_2142" data-name="Path 2142" d="M123.145,273.726a4.337,4.337,0,0,1-.851-.086c-.1-.02-.192-.059-.289-.085a4.305,4.305,0,0,1-.511-.159c-.115-.048-.222-.115-.333-.173a4.47,4.47,0,0,1-.394-.214,4.414,4.414,0,0,1-.371-.293,3,3,0,0,1-.332-.3l36.729-35.6c.1.1.11.1.116.087s0-.005,0-.008l6.121-5.933a3.894,3.894,0,0,1,5.445,0l42.872,41.56c-.075.072-.161.132-.241.2a4.315,4.315,0,0,1-.371.293,4.255,4.255,0,0,1-.394.214c-.111.058-.217.125-.333.173a4.407,4.407,0,0,1-.511.159c-.1.027-.19.065-.289.085a4.332,4.332,0,0,1-.851.086H123.145Z" transform="translate(-18.325 -72.787)" fill="#b2ebf2" opacity="0.85"/>
    <path id="Path_2143" data-name="Path 2143" d="M254.337,255.839a4.318,4.318,0,0,1-1.247,3.036l-36.683-35.559L253.972,198.5a3.407,3.407,0,0,1,.365,1.512v55.827Z" transform="translate(-59.97 -59.236)" fill="#b2ebf2" opacity="0.85"/>
    <path id="Path_2144" data-name="Path 2144" d="M179.7,275.52h0a1.7,1.7,0,0,0,2.4,0l4.856-4.856a1.7,1.7,0,0,1,2.4,0h0a1.7,1.7,0,0,1,0,2.4l-1.346,1.346a1.7,1.7,0,0,0,0,2.4h0a1.7,1.7,0,0,0,2.4,0l8.615-8.615a1.7,1.7,0,0,0,0-2.4h0a1.7,1.7,0,0,0-2.4,0l-1.044,1.044a1.7,1.7,0,0,1-2.4,0h0a1.7,1.7,0,0,1,0-2.4l6.274-6.274a1.7,1.7,0,0,0,0-2.4h0a1.7,1.7,0,0,0-2.4,0l-4.791,4.791a1.7,1.7,0,0,1-2.4,0h0a1.7,1.7,0,0,1,0-2.4l1.4-1.4a1.7,1.7,0,0,0,0-2.4h0a1.7,1.7,0,0,0-2.4,0l-8.615,8.615a1.7,1.7,0,0,0,0,2.4h0a1.7,1.7,0,0,0,2.4,0l.989-.989a1.7,1.7,0,0,1,2.4,0h0a1.7,1.7,0,0,1,0,2.4L179.7,273.12A1.7,1.7,0,0,0,179.7,275.52Z" transform="translate(-43.889 -83.164)" fill="#fff" opacity="0.3"/>
    <g id="Group_224" data-name="Group 224" transform="translate(98.719 86.109)">
      <path id="Path_2145" data-name="Path 2145" d="M187.4,119.418H165.2a1.7,1.7,0,0,0,0,3.4H187.4a1.7,1.7,0,1,0,0-3.4Z" transform="translate(-135.822 -111.161)" fill="#69708a"/>
      <path id="Path_2146" data-name="Path 2146" d="M225.323,122.812a1.7,1.7,0,0,0,0-3.4H215.253a1.7,1.7,0,0,0,0,3.4Z" transform="translate(-157.456 -111.16)" fill="#69708a"/>
      <path id="Path_2147" data-name="Path 2147" d="M192.027,134.621a1.7,1.7,0,0,0,1.7,1.7h22.457a1.7,1.7,0,0,0,0-3.4H193.725A1.7,1.7,0,0,0,192.027,134.621Z" transform="translate(-148.15 -116.998)" fill="#69708a"/>
      <path id="Path_2148" data-name="Path 2148" d="M165.2,136.066h9.747a1.7,1.7,0,0,0,0-3.4H165.2a1.7,1.7,0,0,0,0,3.4Z" transform="translate(-135.822 -116.889)" fill="#69708a"/>
      <path id="Path_2149" data-name="Path 2149" d="M142.014,146.021a1.7,1.7,0,0,0,1.7-1.7v-.313a1.7,1.7,0,0,0-3.4,0v.313A1.7,1.7,0,0,0,142.014,146.021Z" transform="translate(-125.798 -121.057)" fill="#69708a"/>
      <path id="Path_2150" data-name="Path 2150" d="M207.265,221.348c.134-.027.257-.081.387-.116a6.007,6.007,0,0,0,.75-.233c.168-.07.319-.17.479-.254a3.978,3.978,0,0,0,1.2-.828c.082-.073.175-.129.254-.207l.005-.007a6.08,6.08,0,0,0,1.815-4.334V159.542a5.179,5.179,0,0,0-2.329-4.332l-6.864-4.534a1.7,1.7,0,0,0-1.872,2.832l6.864,4.534a1.793,1.793,0,0,1,.806,1.5v55.827a2.467,2.467,0,0,1-.067.33l-33.643-32.612,31.036-20.5a1.7,1.7,0,1,0-1.872-2.833l-6.588,4.353V111.835a6.97,6.97,0,0,0-6.962-6.961H136.225a6.97,6.97,0,0,0-6.962,6.961v10.209a1.7,1.7,0,1,0,3.4,0V111.835a3.57,3.57,0,0,1,3.567-3.566h54.441a3.57,3.57,0,0,1,3.567,3.566v54.511l-21.677,14.321-5.153-5a5.647,5.647,0,0,0-7.9,0l-5.156,5-21.685-14.327V133.593a1.7,1.7,0,0,0-3.4,0v30.5l-5.658-3.737a1.7,1.7,0,1,0-1.872,2.832l30.113,19.9-29.975,29.058a1.7,1.7,0,0,0,2.361,2.44l37.631-36.48a2.265,2.265,0,0,1,3.178,0l41.193,39.932c-.062,0-.115.036-.178.036H120.847a2.711,2.711,0,0,1-2.708-2.708V159.541a1.794,1.794,0,0,1,.806-1.5l6.992-4.619a1.7,1.7,0,0,0-1.872-2.833l-6.991,4.619a5.181,5.181,0,0,0-2.329,4.332v55.827a6.109,6.109,0,0,0,6.1,6.1h85.213A6.121,6.121,0,0,0,207.265,221.348Z" transform="translate(-114.744 -104.874)" fill="#69708a"/>
      <path id="Path_2151" data-name="Path 2151" d="M183.584,188.2a21.145,21.145,0,0,0,20.73-25.228,1.7,1.7,0,0,0-3.331.658,17.734,17.734,0,1,1-7.686-11.4,1.7,1.7,0,1,0,1.862-2.838,21.128,21.128,0,1,0-11.575,38.8Z" transform="translate(-135.368 -122.625)" fill="#69df8a"/>
      <path id="Path_2152" data-name="Path 2152" d="M210.86,152.635l-19.009,22.251-7.456-10.3a1.7,1.7,0,1,0-2.748,1.989l8.718,12.047a1.7,1.7,0,0,0,1.3.7h.069a1.7,1.7,0,0,0,1.292-.6l20.412-23.892a1.7,1.7,0,0,0-2.583-2.2Z" transform="translate(-143.523 -125.262)" fill="#69df8a"/>
      <path id="Path_2153" data-name="Path 2153" d="M129.108,222.357a1.7,1.7,0,0,0-3.4,0V236.75a1.7,1.7,0,1,0,3.4,0Z" transform="translate(-119.485 -154.923)" fill="#fff" opacity="0.3"/>
      <path id="Path_2154" data-name="Path 2154" d="M129.108,255.554a1.7,1.7,0,1,0-3.4,0v.276a1.7,1.7,0,0,0,3.4,0Z" transform="translate(-119.485 -169.273)" fill="#fff" opacity="0.3"/>
      <path id="Path_2155" data-name="Path 2155" d="M127.411,262.2a1.7,1.7,0,0,0-1.7,1.7v8.286a1.7,1.7,0,1,0,3.4,0V263.9A1.7,1.7,0,0,0,127.411,262.2Z" transform="translate(-119.485 -172.882)" fill="#fff" opacity="0.3"/>
    </g>
    <path id="Path_2156" data-name="Path 2156" d="M298.25,129.213h-1.2a1.912,1.912,0,0,1-1.912-1.912v-1.2a1.74,1.74,0,0,0-1.362-1.729,1.7,1.7,0,0,0-2.033,1.665V127.3a1.912,1.912,0,0,1-1.912,1.912h-1.2a1.74,1.74,0,0,0-1.729,1.362,1.7,1.7,0,0,0,1.665,2.033h1.264a1.912,1.912,0,0,1,1.912,1.912v1.2a1.74,1.74,0,0,0,1.362,1.729,1.7,1.7,0,0,0,2.033-1.665V134.52a1.912,1.912,0,0,1,1.912-1.912h1.264a1.7,1.7,0,0,0,1.665-2.033A1.741,1.741,0,0,0,298.25,129.213Z" transform="translate(-90.429 -27.179)" fill="#69708a"/>
    <path id="Path_2157" data-name="Path 2157" d="M241.459,66.336h-1.2a1.912,1.912,0,0,1-1.912-1.912v-1.2a1.74,1.74,0,0,0-1.362-1.729,1.7,1.7,0,0,0-2.033,1.665v1.264a1.912,1.912,0,0,1-1.912,1.912h-1.2a1.74,1.74,0,0,0-1.729,1.362,1.7,1.7,0,0,0,1.665,2.033h1.264a1.912,1.912,0,0,1,1.912,1.912v1.2a1.74,1.74,0,0,0,1.362,1.729,1.7,1.7,0,0,0,2.033-1.665V71.643a1.912,1.912,0,0,1,1.912-1.912h1.264a1.7,1.7,0,0,0,1.665-2.033A1.74,1.74,0,0,0,241.459,66.336Z" transform="translate(-65.88 0)" fill="#69708a"/>
    <path id="Path_2158" data-name="Path 2158" d="M89.051,175.309h-1.2a1.912,1.912,0,0,1-1.912-1.912v-1.2a1.74,1.74,0,0,0-1.362-1.729,1.7,1.7,0,0,0-2.033,1.665V173.4a1.912,1.912,0,0,1-1.912,1.912h-1.2a1.74,1.74,0,0,0-1.729,1.362,1.7,1.7,0,0,0,1.665,2.033h1.264a1.912,1.912,0,0,1,1.912,1.912v1.2a1.74,1.74,0,0,0,1.362,1.729,1.7,1.7,0,0,0,2.033-1.665v-1.264a1.912,1.912,0,0,1,1.912-1.912h1.264a1.7,1.7,0,0,0,1.665-2.033A1.741,1.741,0,0,0,89.051,175.309Z" transform="translate(0 -47.105)" fill="#69708a"/>
  </g>
</svg>
